<?xml version="1.0" encoding="UTF-8" standalone="no"?>
<!-- Created with Inkscape (http://www.inkscape.org/) -->

<svg
   width="32"
   height="32"
   viewBox="0 0 32 32"
   version="1.1"
   id="svg1"
   inkscape:version="1.4 (e7c3feb100, 2024-10-09)"
   sodipodi:docname="logo.svg"
   inkscape:export-filename="favicon.png"
   inkscape:export-xdpi="96"
   inkscape:export-ydpi="96"
   xmlns:inkscape="http://www.inkscape.org/namespaces/inkscape"
   xmlns:sodipodi="http://sodipodi.sourceforge.net/DTD/sodipodi-0.dtd"
   xmlns="http://www.w3.org/2000/svg"
   xmlns:svg="http://www.w3.org/2000/svg">
  <sodipodi:namedview
     id="namedview1"
     pagecolor="#ffffff"
     bordercolor="#000000"
     borderopacity="0.25"
     inkscape:showpageshadow="2"
     inkscape:pageopacity="0.0"
     inkscape:pagecheckerboard="0"
     inkscape:deskcolor="#d1d1d1"
     inkscape:document-units="px"
     inkscape:zoom="11.313708"
     inkscape:cx="10.783379"
     inkscape:cy="14.49569"
     inkscape:window-width="1366"
     inkscape:window-height="695"
     inkscape:window-x="0"
     inkscape:window-y="45"
     inkscape:window-maximized="1"
     inkscape:current-layer="layer1" />
  <defs
     id="defs1">
    <rect
       x="2.3864855"
       y="1.9445437"
       width="33.057244"
       height="30.05204"
       id="rect2" />
  </defs>
  <g
     inkscape:label="Layer 1"
     inkscape:groupmode="layer"
     id="layer1">
    <rect
       style="fill:#241a3b;fill-opacity:1;stroke-width:3.77953"
       id="rect1"
       width="32"
       height="32"
       x="0"
       y="0"
       ry="16" />
    <path
       style="-inkscape-font-specification:Cookie;fill:#ffffff;stroke-width:0.99958992;stroke-dasharray:none"
       d="m 14.410156,0.3828125 c -0.57446,0 -1.06658,0.38307381 -1.457031,0.96875 -0.402242,0.6033636 -0.752253,1.545862 -1.109375,2.8769531 v 0.00195 0.00195 C 11.510006,5.5197215 11.257586,7.3065563 11.066406,9.5097656 9.9177376,10.542684 8.8598739,11.03544 7.8671875,11.164063 c 0.034954,-0.285112 0.060122,-0.505207 0.1210937,-0.972657 v -0.002 C 8.0845199,9.4355843 8.1487395,8.8903832 8.1816406,8.5449219 8.2144743,8.1837514 8.247146,7.6913959 8.2792969,7.0644531 l -0.00195,0.00977 C 8.3261731,6.4231606 8.3515625,5.7327174 8.3515625,5.0039062 8.3515625,4.2309831 8.1850752,3.523302 7.8496094,2.9023438 7.5124266,2.2322821 6.8983967,1.8242187 6.1796875,1.8242187 c -0.9713151,0 -1.8273225,0.3539707 -2.4726562,1.0351563 l -0.00195,0.00195 -0.00195,0.00195 C 3.0867642,3.5324729 2.7578125,4.330941 2.7578125,5.1953125 c 0,0.5574323 0.097864,1.0962519 0.2910156,1.6054687 0.1000107,0.2636647 0.2170629,0.4825579 0.3847657,0.65625 0.1677027,0.1736922 0.4075196,0.2949219 0.6562499,0.2949219 0.2713218,0 0.5400231,-0.1854804 0.671875,-0.4121094 0.1300337,-0.2024123 0.2050782,-0.4385232 0.2050782,-0.6796875 0,-0.3241666 -0.1374847,-0.619214 -0.3496094,-0.9550781 l 0.00586,0.00781 C 4.4670465,5.4528899 4.390625,5.1772917 4.390625,4.859375 4.390625,4.4044417 4.498827,4.1345837 4.6621094,3.96875 4.8253918,3.8029163 5.0863659,3.6972656 5.53125,3.6972656 c 0.00579,0 -0.020117,-0.017926 0.00391,0.00781 0.024023,0.025739 0.076231,0.1077506 0.1210938,0.2519532 0.089726,0.288405 0.1503906,0.8044655 0.1503906,1.5039062 0,0.7429037 -0.07386,1.8501038 -0.2050781,3.2246094 C 5.2369404,8.7965314 4.8566659,8.8945837 4.6113281,9.234375 4.2695452,9.691794 4.1015625,10.258357 4.1015625,10.884766 c 0,0.774371 0.4252914,1.377563 1.0664062,1.765625 -0.1699668,1.423512 -0.2734375,2.516502 -0.2734375,3.154297 0,0.350972 0.042605,0.646716 0.1933594,0.902343 0.1507546,0.255628 0.4578519,0.429688 0.7539063,0.429688 0.3683443,0 0.7141885,-0.09491 0.9863281,-0.304688 0.2721396,-0.209774 0.4523258,-0.519894 0.5488281,-0.876953 0.098277,-0.329317 0.1677702,-0.625463 0.203125,-0.890625 v -0.002 -0.002 c 0.035026,-0.280212 0.058026,-0.669314 0.074219,-1.1875 0.012018,-0.396584 0.025389,-0.620439 0.037109,-0.839844 1.0644629,-0.122806 2.1492175,-0.63351 3.2519528,-1.447265 -0.02228,0.555581 -0.04883,1.12185 -0.04883,1.626953 0,0.740559 0.05786,1.533872 0.171875,2.380859 0.05763,0.428109 0.121711,0.772926 0.203125,1.048828 0.08141,0.275902 0.152264,0.490524 0.369141,0.667969 0.431757,0.353255 0.991169,0.521484 1.619141,0.521484 0.254115,0 0.500393,-0.0518 0.726562,-0.152344 0.122413,-0.04615 0.240668,-0.106651 0.339844,-0.214843 0.103314,-0.112707 0.171875,-0.282636 0.171875,-0.4375 0,-0.122405 -0.01864,-0.164941 -0.04102,-0.257813 -0.02238,-0.09287 -0.05471,-0.208166 -0.0957,-0.349609 -0.08146,-0.28103 -0.202233,-0.668734 -0.361328,-1.162109 v -0.002 c -8.08e-4,-0.0025 -0.0011,-0.0033 -0.002,-0.0059 -0.291391,-0.968882 -0.4375,-1.959363 -0.4375,-2.974609 0,-1.035115 0.04777,-2.169223 0.138672,-3.3906254 1.647815,-2.1871351 2.52539,-4.26631 2.52539,-6.2324218 0,-0.5793423 -0.161375,-1.1113661 -0.482422,-1.5488282 C 15.426645,0.65519063 14.94154,0.3828125 14.410156,0.3828125 Z m 14.064453,0.0253906 c -0.316314,0 -0.587618,0.18725517 -0.785156,0.4296875 C 27.491916,1.0803229 27.332601,1.3954778 27.179687,1.796875 26.883142,2.575308 26.624624,3.7125128 26.380859,5.1699219 25.395825,6.2473675 24.538623,7.4378952 23.740234,8.6777344 23.245814,7.3825886 22.650019,6.1095397 21.824219,4.8886719 21.814965,4.4509597 21.768384,4.0254783 21.65625,3.625 21.594439,3.3963117 21.526156,3.2093505 21.419922,3.046875 21.312947,2.8832666 21.119004,2.7109375 20.867187,2.7109375 c -0.612106,0 -1.154674,0.2220134 -1.474609,0.6699219 l -0.0039,0.00586 -0.0039,0.00586 c -0.269116,0.4036734 -0.402344,0.8824011 -0.402344,1.3964844 0,0.5839979 0.419686,1.2323507 1.011719,2.0292969 -0.253102,1.6047049 -0.641107,3.1722325 -1.181641,4.7011716 v 0.002 0.002 c -0.53369,1.553979 -1.110858,2.628227 -1.664063,3.210937 0.02305,-0.0247 -0.147549,0.08349 -0.453125,0.15625 -0.351582,0.07177 -0.672587,0.189099 -0.953124,0.357422 -0.362221,0.217332 -0.552735,0.641871 -0.552735,1.083984 0,0.301664 0.124015,0.614698 0.365235,0.800781 0.241219,0.186084 0.540115,0.244141 0.871093,0.244141 0.89466,0 1.695704,-0.454253 2.308594,-1.259766 l 0.002,-0.002 v -0.002 c 0.60078,-0.806761 1.153846,-1.973726 1.689453,-3.515625 0.398525,-1.147267 0.642634,-2.260916 0.888672,-3.3749997 0.328861,0.6930472 0.680454,1.3825507 0.888672,2.0937497 -0.628849,1.345135 -1.013672,2.491984 -1.013672,3.408203 0,0.666297 0.07723,1.19159 0.291016,1.603516 0.213784,0.411926 0.634512,0.689453 1.089843,0.689453 0.666873,0 1.262008,-0.351313 1.667969,-0.939453 0.431975,-0.603689 0.625,-1.408751 0.625,-2.386719 0,-0.92848 -0.183693,-2.016833 -0.484375,-3.21875 0.513522,-0.7698978 1.100051,-1.4156014 1.683594,-2.0683591 -0.13304,1.6545261 -0.240234,3.4471851 -0.240234,5.8398441 0,0.616695 0.01961,1.106927 0.0625,1.484375 0.04272,0.375916 0.06021,0.623893 0.269531,0.876953 0.195553,0.241297 0.398365,0.287736 0.707031,0.390625 l 0.0098,0.0039 0.0098,0.002 c 0.328138,0.09115 0.684369,0.134766 1.066407,0.134766 0.640602,0 1.223912,-0.406245 1.785156,-1.070313 0.561244,-0.664067 1.124173,-1.618643 1.716797,-2.876953 l 0.002,-0.002 v -0.002 c 0.551921,-1.20124 0.851562,-2.004793 0.851562,-2.613281 0,-0.121823 -0.02441,-0.273712 -0.138672,-0.404297 -0.114262,-0.130586 -0.294257,-0.183594 -0.425781,-0.183594 -0.193729,0 -0.262147,0.082749 -0.3125,0.128906 -0.05035,0.04616 -0.08199,0.0871 -0.115234,0.132813 -0.06649,0.09142 -0.130597,0.199714 -0.207031,0.339844 -0.152869,0.280258 -0.347784,0.682311 -0.589844,1.214843 l -0.002,0.002 c -0.455528,1.021012 -0.92344,1.853242 -1.396485,2.494141 v 0.002 c -0.228842,0.312751 -0.43116,0.537716 -0.585937,0.669922 -0.05177,0.04422 -0.04472,0.0284 -0.08203,0.05078 -0.03208,-0.126037 -0.06604,-0.274429 -0.09375,-0.52539 -0.06883,-0.623336 -0.105469,-1.593923 -0.105469,-2.890625 0,-2.5698522 0.0962,-4.5072516 0.279297,-5.8320316 0.912741,-1.1254714 1.423828,-2.27524 1.423828,-3.4316406 0,-0.4460777 -0.168952,-0.8778899 -0.462891,-1.2656251 C 29.215391,0.69407468 28.894422,0.40820313 28.474609,0.40820313 Z M 14.410156,1.1757812 c 0.299084,0 0.48509,0.097463 0.683594,0.3828125 l 0.002,0.00391 0.0039,0.00586 c 0.219756,0.2973164 0.330079,0.6421979 0.330079,1.0839844 0,0.040182 -0.02653,0.086575 -0.02734,0.1269531 -0.0218,-0.17257 -0.03207,-0.3498155 -0.0957,-0.5058594 -0.04031,-0.1258879 -0.0878,-0.2429714 -0.179688,-0.3515625 -0.09758,-0.1153198 -0.274399,-0.21875 -0.453125,-0.21875 -0.184036,0 -0.340598,0.095443 -0.443359,0.1972656 C 14.127707,2.0022137 14.055868,2.1168922 13.990234,2.25 13.858967,2.5162156 13.752182,2.8608144 13.646484,3.3105469 13.435089,4.2100117 13.241529,5.5212398 13.056641,7.265625 L 13.625,7.46875 c -0.233332,0.3591017 -0.349007,0.6922008 -0.632812,1.0625 l -0.07227,0.09375 -0.0078,0.1171875 c -0.09664,1.2724405 -0.146484,2.4493675 -0.146484,3.5332035 0,1.094048 0.157604,2.166291 0.472656,3.210937 l 0.002,0.0039 0.002,0.0039 c 0.15933,0.493925 0.277464,0.877371 0.355468,1.146484 0.03849,0.132789 0.06631,0.23752 0.08399,0.310547 l -0.01172,0.0039 c -0.122433,0.05565 -0.254943,0.08398 -0.412109,0.08398 -0.492029,0 -0.842992,-0.119052 -1.115235,-0.341796 0.04088,0.03344 -0.04874,-0.0672 -0.111328,-0.279297 -0.06259,-0.212098 -0.125318,-0.52775 -0.179687,-0.931641 C 11.74158,14.669316 11.6875,13.912331 11.6875,13.212891 c 0,-0.727381 0.02268,-1.511978 0.07031,-2.353516 l 0.05273,-0.9277344 -0.107422,0.091797 -0.597656,0.511718 C 9.724124,11.714731 8.451224,12.29243 7.2910156,12.335938 L 6.9375,12.349609 6.9121094,12.703125 c -0.016908,0.236715 -0.032758,0.614228 -0.048828,1.144531 -0.015807,0.505814 -0.041339,0.883446 -0.070312,1.115235 -0.028343,0.210864 -0.086526,0.471363 -0.1777343,0.77539 l -0.00195,0.0059 -0.00195,0.0039 c -0.063498,0.234941 -0.1557177,0.370805 -0.2675781,0.457031 -0.1118604,0.08623 -0.2622974,0.138672 -0.5019531,0.138672 -0.071946,0 -0.03902,0.01731 -0.072266,-0.03906 C 5.7362858,16.248315 5.6875,16.077715 5.6875,15.804688 c 0,-0.600351 0.093947,-1.702132 0.2851562,-3.263672 l 0.035156,-0.296875 -0.2753906,-0.117188 c -0.6097744,-0.25746 -0.8378907,-0.598094 -0.8378907,-1.242187 0,-0.492029 0.1210256,-0.867748 0.3535157,-1.1777347 L 5.25,9.703125 l 0.00195,-0.00391 C 5.3588864,9.5507003 5.4795579,9.5705992 5.5859375,9.5019531 c -0.026814,0.02802 -0.026839,0.069204 -0.050781,0.099609 l -0.013672,-0.00781 -0.00391,0.042969 C 5.3683789,9.8398673 5.1816406,10.028897 5.1816406,10.283203 c 0,0.334196 0.082431,0.651673 0.2675781,0.90625 l 0.6035157,0.830078 0.3515625,-3.2207029 -0.017578,0.011719 C 6.523517,7.3907777 6.5996094,6.2618477 6.5996094,5.4609375 6.5996094,4.7203782 6.5483365,4.1542512 6.4140625,3.7226563 6.3469255,3.5068588 6.2592114,3.3183236 6.1152344,3.1640625 5.9712574,3.0098014 5.7494554,2.9042969 5.53125,2.9042969 c -0.1181717,0 -0.1815547,0.090289 -0.2929688,0.1035156 0.3103678,-0.1282915 0.5499204,-0.390625 0.9414063,-0.390625 0.4634054,0 0.7254426,0.165729 0.9648437,0.6445313 l 0.00195,0.00586 0.00391,0.00586 c 0.2700073,0.4973817 0.4082031,1.0662725 0.4082031,1.7304687 0,0.7111889 -0.023142,1.3808238 -0.070312,2.0097657 l -0.00195,0.00586 v 0.00391 c -0.031849,0.6210572 -0.062584,1.1063893 -0.09375,1.4492188 -0.03114,0.3266639 -0.095759,0.8679484 -0.1914062,1.6171877 -0.096127,0.736974 -0.1606474,1.248561 -0.1933594,1.542969 l -0.048828,0.439453 h 0.4433593 c 1.4138189,0 2.8487313,-0.712282 4.3007813,-2.048828 L 11.816406,9.9199219 11.830078,9.765625 C 12.020999,7.4745689 12.285049,5.6901475 12.611328,4.4316406 12.957696,3.1419337 13.311987,2.2449094 13.613281,1.7929687 13.92683,1.322645 14.184616,1.1757813 14.410156,1.1757812 Z m 14.064453,0.025391 c 0.02575,0 0.166959,0.049367 0.373047,0.3378906 l 0.0039,0.00391 0.0039,0.00586 c 0.215548,0.2829073 0.302734,0.5351369 0.302734,0.7910157 0,0.9733259 -0.41904,1.9850174 -1.322266,3.0566406 l -0.07422,0.087891 -0.01563,0.1132812 c -0.196904,1.3947374 -0.291016,3.3881292 -0.291016,6.0058598 0,1.311297 0.03421,2.297851 0.109375,2.978515 0.03758,0.340332 0.0818,0.601516 0.152344,0.814453 0.03527,0.106469 0.07419,0.202206 0.15039,0.300782 0.0762,0.09857 0.230411,0.214843 0.416016,0.214843 0.294523,0 0.532496,-0.144049 0.761719,-0.339843 0.06941,-0.05929 0.14471,-0.171739 0.214844,-0.244141 -0.04159,0.0529 -0.09397,0.178287 -0.134766,0.226563 -0.486756,0.575932 -0.890336,0.789062 -1.177734,0.789062 -0.320511,0 -0.60254,-0.03722 -0.84961,-0.105469 h -0.0039 c -0.240322,-0.08756 -0.391626,-0.210724 -0.326172,-0.128906 l -0.002,-0.0039 -0.002,-0.0039 c 0.05177,0.06213 -0.05469,-0.136337 -0.0918,-0.46289 -0.03711,-0.326553 -0.05664,-0.795227 -0.05664,-1.394531 0,-2.871189 0.09555,-5.1952161 0.285157,-6.9648441 L 27.019531,6.1777344 26.228516,6.953125 C 25.381743,7.7852977 24.625935,8.7583699 23.912109,9.7949219 L 24.013672,9.6269531 C 24.896307,8.1769096 25.903058,6.837931 27.037109,5.609375 l 0.08203,-0.087891 0.01953,-0.1171875 C 27.384412,3.9060728 27.651701,2.7892836 27.921875,2.0800781 28.056962,1.7254754 28.194225,1.4734583 28.304687,1.3378906 28.41515,1.202323 28.462923,1.2011719 28.474609,1.2011719 Z M 14.623047,2.8457031 c 0.01149,0.072865 0.03906,0.1299753 0.03906,0.2148438 0,0.5873706 -0.177426,1.2690813 -0.478515,2.0117187 0.07909,-0.4943225 0.153842,-1.2374175 0.234375,-1.5800781 0.07134,-0.3035441 0.138592,-0.4711672 0.205078,-0.6464844 z m 6.15625,0.6933594 c 0.03095,0.058669 0.07162,0.1421466 0.113281,0.296875 v 0.00195 0.00195 c 0.101637,0.3629892 0.154297,0.7491041 0.154297,1.1640624 v 0.1230469 l 0.06836,0.1015625 c 0.957086,1.3964037 1.683967,2.8350911 2.183594,4.3183594 l 0.244141,0.726563 -0.0078,0.01172 0.04492,0.171875 c 0.329923,1.256847 0.490235,2.337418 0.490234,3.234375 0,0.875589 -0.176775,1.509875 -0.478515,1.929688 l -0.002,0.0039 -0.002,0.002 c -0.297978,0.433423 -0.597971,0.597656 -1.017579,0.597656 -0.200668,0 -0.27055,-0.04165 -0.384765,-0.261718 -0.01566,-0.03019 -0.01285,-0.132222 -0.02734,-0.169922 0.08883,0.09279 0.214646,0.191406 0.365234,0.191406 0.2386,0 0.442946,-0.166916 0.544922,-0.330078 0.101977,-0.163162 0.157743,-0.342712 0.203125,-0.560547 v -0.002 -0.002 c 0.08538,-0.426917 0.126954,-0.869697 0.126953,-1.326172 0,-0.46137 -0.05099,-0.963041 -0.15039,-1.509766 l -0.226563,-1.25 -0.05078,0.111328 C 22.642463,9.9879988 22.182139,8.8838961 21.572266,7.8085937 L 21.027344,6.8496094 20.835937,7.9355469 c -0.252024,1.4333877 -0.638515,2.9006501 -1.160156,4.4023441 -0.520022,1.497034 -1.053391,2.601504 -1.572265,3.298828 -4.48e-4,5.88e-4 -0.0015,-5.88e-4 -0.002,0 -2.5e-4,3.36e-4 2.51e-4,0.0016 0,0.002 -0.506467,0.664504 -1.035326,0.945312 -1.675781,0.945312 -0.229021,0 -0.347938,-0.05016 -0.386719,-0.08008 -0.03878,-0.02992 -0.05664,-0.04154 -0.05664,-0.171875 0,-0.261886 0.05019,-0.333629 0.167969,-0.404297 0.195556,-0.117333 0.432228,-0.207148 0.714843,-0.263671 h 0.0059 l 0.0078,-0.002 c 0.362487,-0.08631 0.61533,-0.148532 0.835938,-0.36914 l 0.0039,-0.0039 0.0039,-0.0039 c 0.693416,-0.728975 1.284752,-1.890625 1.837891,-3.5 0.568214,-1.607235 0.982456,-3.2570551 1.242187,-4.9453123 l 0.02539,-0.1660156 -0.103516,-0.1347656 c -0.669253,-0.8715857 -0.949218,-1.5284876 -0.949218,-1.75 0,-0.3788247 0.09156,-0.6824599 0.267578,-0.9492187 0.142862,-0.197536 0.381819,-0.2794694 0.736328,-0.3007813 z M 3.6347656,4.9921875 C 3.656688,5.3907289 3.739393,5.7811496 3.9433594,6.1210937 l 0.00195,0.00391 0.00195,0.00195 c 0.1718754,0.272136 0.2265625,0.4733698 0.2265625,0.5332031 0,0.1039091 -0.021528,0.1777996 -0.076172,0.2597657 l -0.00977,0.013672 -0.00781,0.013672 c -0.030952,0.055714 0.021599,0.011719 0.00977,0.011719 -0.02327,0 -0.02964,0.00557 -0.085937,-0.052734 C 3.947609,6.8479422 3.8650518,6.7198666 3.7890625,6.5195312 3.6302137,6.1007481 3.5507812,5.6618802 3.5507813,5.1953125 c 0,-0.076092 0.077982,-0.1293697 0.083984,-0.203125 z"
       id="text2"
       transform="matrix(1.0154164,0,0,1.0154164,-1.8007406,6.7514306)" />
  </g>
</svg>
